<?xml version="1.0" encoding="utf-8"?>
<!-- Generator: Adobe Illustrator 22.1.0, SVG Export Plug-In . SVG Version: 6.00 Build 0)  -->
<svg version="1.1" id="Layer_1" xmlns="http://www.w3.org/2000/svg" xmlns:xlink="http://www.w3.org/1999/xlink" x="0px" y="0px"
	 viewBox="0 0 187.3 187.2" style="enable-background:new 0 0 187.3 187.2;" xml:space="preserve">
<style type="text/css">
	.st0{fill:url(#SVGID_1_);}
	.st1{fill:url(#SVGID_2_);}
	.st2{fill:url(#SVGID_3_);}
	.st3{fill:url(#SVGID_4_);}
	.st4{fill:url(#SVGID_5_);}
	.st5{fill:url(#SVGID_6_);}
	.st6{fill:url(#SVGID_7_);}
</style>
<title>owl</title>
<g>
	<linearGradient id="SVGID_1_" gradientUnits="userSpaceOnUse" x1="40.5906" y1="183.5466" x2="40.5906" y2="-31.7103">
		<stop  offset="0" style="stop-color:#FFFFFF"/>
		<stop  offset="1" style="stop-color:#BED632"/>
	</linearGradient>
	<path class="st0" d="M7,94.6l7.2,4.4c0,0,3.3,30.5,30.1,30.5c0,0,13.3-0.9,23.5-9.8c0.7,0.8,1.8,1.3,2.9,1.2
		c2.1-0.1,3.7-1.9,3.6-4.1c-0.1-1.2-0.6-2.2-1.4-2.9c0,0,0,0,0,0C72.8,113.9,44.1,71.9,7,94.6 M42.9,122.1
		c-9.4,0.4-17.3-6.8-17.7-16.1c-0.2-3.2,0.6-6.3,2-8.9c4-0.4,7.7-0.1,11.1,0.6c-2.8,1.4-4.7,4.4-4.6,7.7c0.2,4.5,4,8,8.5,7.8
		c4.5-0.2,8-4,7.8-8.5c0-0.9-0.2-1.7-0.5-2.5c3.9,2.3,7,4.9,9.1,6.9C57,116.2,50.7,121.7,42.9,122.1"/>
	<linearGradient id="SVGID_2_" gradientUnits="userSpaceOnUse" x1="146.4767" y1="183.5466" x2="146.4767" y2="-31.7108">
		<stop  offset="0" style="stop-color:#FFFFFF"/>
		<stop  offset="1" style="stop-color:#BED632"/>
	</linearGradient>
	<path class="st1" d="M114.2,113.9C114.3,113.9,114.3,113.9,114.2,113.9c-0.8,0.7-1.3,1.7-1.4,2.9c-0.1,2.2,1.5,4,3.6,4.1
		c1.2,0.1,2.2-0.4,2.9-1.2c10.1,8.9,23.5,9.8,23.5,9.8c26.8,0.1,30.1-30.5,30.1-30.5l7.2-4.4C143,71.9,114.2,113.9,114.2,113.9
		 M128.5,108.9c2.2-2.1,5.2-4.7,9.1-6.9c-0.3,0.8-0.5,1.6-0.5,2.5c-0.2,4.5,3.3,8.3,7.8,8.5c4.5,0.2,8.3-3.3,8.5-7.8
		c0.2-3.3-1.7-6.3-4.5-7.7c3.4-0.7,7.1-1,11-0.6c1.4,2.6,2.2,5.7,2.1,8.9c-0.4,9.4-8.4,16.6-17.7,16.1
		C136.4,121.7,130.1,116.2,128.5,108.9"/>
	<linearGradient id="SVGID_3_" gradientUnits="userSpaceOnUse" x1="93.6533" y1="183.5488" x2="93.6533" y2="-31.7095">
		<stop  offset="0" style="stop-color:#FFFFFF"/>
		<stop  offset="1" style="stop-color:#BED632"/>
	</linearGradient>
	<path class="st2" d="M93.7,39.8L93.7,39.8L93.7,39.8C93.7,39.8,93.7,39.8,93.7,39.8L93.7,39.8c8.2-10,19.9-17.4,34.6-22
		c5.9-1.8,11.1-2.9,15-3.4C138,11,132.5,8.2,126.6,6c-4.6,0.8-21.5,4.4-32,16.4l-1,1.1l-1-1.1C82.2,10.4,65.3,6.8,60.7,6
		c-5.8,2.2-11.4,5-16.6,8.3c3.9,0.6,9.2,1.6,15,3.4C73.7,22.3,85.5,29.7,93.7,39.8"/>
	<linearGradient id="SVGID_4_" gradientUnits="userSpaceOnUse" x1="93.6592" y1="183.547" x2="93.6592" y2="-31.709">
		<stop  offset="0" style="stop-color:#FFFFFF"/>
		<stop  offset="1" style="stop-color:#BED632"/>
	</linearGradient>
	<path class="st3" d="M93.7,16.6L93.7,16.6L93.7,16.6L93.7,16.6L93.7,16.6c7.7-7.6,17.1-11.3,24.2-13.4C110.2,1.1,102,0,93.7,0h0
		c-8.4,0-16.5,1.1-24.2,3.2C76.5,5.3,85.9,9,93.7,16.6"/>
	<linearGradient id="SVGID_5_" gradientUnits="userSpaceOnUse" x1="93.6554" y1="183.5454" x2="93.6554" y2="-31.7078">
		<stop  offset="0" style="stop-color:#FFFFFF"/>
		<stop  offset="1" style="stop-color:#BED632"/>
	</linearGradient>
	<path class="st4" d="M93.7,68.2C93.7,68.2,93.7,68.2,93.7,68.2c10.3-13.9,26.6-24.8,47.5-31.6c8.7-2.8,16.6-4.4,22.2-5.3
		c-4.3-4.8-9-9.1-14.2-12.9c-6.4,0.5-37.6,4.2-54.2,27.3l-1.4,2l-1.4-2C75.7,22.6,44.5,18.9,38.1,18.4c-5.2,3.8-9.9,8.2-14.2,12.9
		c5.6,0.9,13.5,2.5,22.2,5.3C67.1,43.4,83.4,54.3,93.7,68.2"/>
	<linearGradient id="SVGID_6_" gradientUnits="userSpaceOnUse" x1="93.6584" y1="183.5469" x2="93.6584" y2="-31.7082">
		<stop  offset="0" style="stop-color:#FFFFFF"/>
		<stop  offset="1" style="stop-color:#BED632"/>
	</linearGradient>
	<path class="st5" d="M75.1,74.3c9,6.9,14.7,14.3,18.6,23.8l0,0c3.9-9.4,9.6-16.9,18.6-23.7c8.5-6.5,19.2-11.8,31.9-15.6
		c13.2-4,25.6-5.7,33.4-6.4c-2.9-6-6.5-11.5-10.6-16.7c-5.4,0.8-14.4,2.3-24.3,5.6c-27,8.8-40.6,22.6-47.1,32.7l-1.8,2.8l-1.8-2.8
		c-6.6-10.1-20.1-23.9-47.1-32.7c-10-3.2-18.9-4.8-24.3-5.6c-4.1,5.2-7.6,10.7-10.6,16.7c7.8,0.7,20.2,2.4,33.4,6.4
		C55.8,62.6,66.6,67.8,75.1,74.3"/>
	<linearGradient id="SVGID_7_" gradientUnits="userSpaceOnUse" x1="93.655" y1="183.547" x2="93.655" y2="-31.7094">
		<stop  offset="0" style="stop-color:#FFFFFF"/>
		<stop  offset="1" style="stop-color:#BED632"/>
	</linearGradient>
	<path class="st6" d="M187.3,93.4c0-6.8-0.7-13.4-2.1-19.8c-1.2-5.8-3-11.4-5.3-16.7c-2.2,0.2-4.8,0.4-7.7,0.8
		c-7.3,0.9-16.5,2.6-26.1,5.5c-12.3,3.7-22.6,8.7-30.7,14.9c-10,7.6-16.7,17-19.9,27.9l-1.8,5.6l-1.8-5.6C88.7,95.1,82,85.7,72,78.1
		c-8.1-6.2-18.5-11.1-30.8-14.9c-9.6-2.9-18.8-4.5-26.1-5.5c-2.9-0.4-5.5-0.6-7.7-0.8c-2.2,5.3-4,11-5.3,16.7C0.7,80,0,86.6,0,93.4
		c0,51.7,42,93.7,93.6,93.8h0C145.3,187.1,187.3,145.1,187.3,93.4 M93.7,179.9C46.1,179.8,7.4,141,7.4,93.4c0-6.7,0.8-13.3,2.2-19.6
		c39.8,2.7,72.8,29.7,84.1,66l0,0c11.2-36.4,44.3-63.4,84.1-66c1.5,6.3,2.2,12.8,2.2,19.6C179.9,141,141.2,179.8,93.7,179.9"/>
</g>
</svg>
